<svg width="22" height="12" viewBox="0 0 22 12" fill="none" xmlns="http://www.w3.org/2000/svg">
<path d="M2.7983 11.2237C2.38068 11.2237 1.99953 11.1226 1.65483 10.9205C1.31013 10.715 1.03504 10.4399 0.829546 10.0952C0.624053 9.74716 0.521307 9.366 0.521307 8.9517C0.521307 8.53078 0.624053 8.14796 0.829546 7.80327C1.03504 7.45857 1.31013 7.18348 1.65483 6.97798C1.99953 6.77249 2.38068 6.66974 2.7983 6.66974H3.83239V5.13849H2.7983C2.38068 5.13849 1.99953 5.0374 1.65483 4.83523C1.31013 4.62973 1.03504 4.3563 0.829546 4.01491C0.624053 3.67022 0.521307 3.2874 0.521307 2.86648C0.521307 2.44886 0.624053 2.06771 0.829546 1.72301C1.03504 1.37831 1.31013 1.10488 1.65483 0.902699C1.99953 0.697206 2.38068 0.59446 2.7983 0.59446C3.21591 0.59446 3.59706 0.697206 3.94176 0.902699C4.28646 1.10488 4.56155 1.37831 4.76705 1.72301C4.97585 2.06771 5.08026 2.44886 5.08026 2.86648V3.8956H6.60653V2.86648C6.60653 2.44886 6.70762 2.06771 6.9098 1.72301C7.11529 1.37831 7.39039 1.10488 7.73509 0.902699C8.07978 0.697206 8.4626 0.59446 8.88352 0.59446C9.30114 0.59446 9.68229 0.697206 10.027 0.902699C10.3717 1.10488 10.6451 1.37831 10.8473 1.72301C11.0528 2.06771 11.1555 2.44886 11.1555 2.86648C11.1555 3.2874 11.0528 3.67022 10.8473 4.01491C10.6418 4.3563 10.3667 4.62973 10.022 4.83523C9.68063 5.0374 9.30114 5.13849 8.88352 5.13849H7.8544V6.66974H8.88352C9.30114 6.66974 9.68063 6.77249 10.022 6.97798C10.3667 7.18348 10.6418 7.45857 10.8473 7.80327C11.0528 8.14796 11.1555 8.53078 11.1555 8.9517C11.1555 9.366 11.0528 9.74716 10.8473 10.0952C10.6418 10.4399 10.3667 10.715 10.022 10.9205C9.68063 11.1226 9.30114 11.2237 8.88352 11.2237C8.4626 11.2237 8.07978 11.1226 7.73509 10.9205C7.39039 10.715 7.11529 10.4399 6.9098 10.0952C6.70762 9.74716 6.60653 9.366 6.60653 8.9517V7.91264H5.08026V8.9517C5.08026 9.366 4.97585 9.74716 4.76705 10.0952C4.56155 10.4399 4.28646 10.715 3.94176 10.9205C3.59706 11.1226 3.21591 11.2237 2.7983 11.2237ZM2.7983 9.98082C2.98722 9.98082 3.15956 9.93442 3.31534 9.84162C3.47443 9.74882 3.60038 9.62453 3.69318 9.46875C3.78599 9.31297 3.83239 9.14062 3.83239 8.9517V7.91264H2.7983C2.60938 7.91264 2.43703 7.9607 2.28125 8.05682C2.12547 8.14962 2.00118 8.27391 1.90838 8.42969C1.81558 8.58546 1.76918 8.75947 1.76918 8.9517C1.76918 9.14062 1.81392 9.31297 1.90341 9.46875C1.99621 9.62453 2.1205 9.74882 2.27628 9.84162C2.43537 9.93442 2.60938 9.98082 2.7983 9.98082ZM2.7983 3.8956H3.83239V2.86648C3.83239 2.67424 3.78599 2.50189 3.69318 2.34943C3.60038 2.19366 3.47443 2.06937 3.31534 1.97656C3.15956 1.88376 2.98722 1.83736 2.7983 1.83736C2.60938 1.83736 2.43703 1.88376 2.28125 1.97656C2.12547 2.06937 2.00118 2.19366 1.90838 2.34943C1.81558 2.50189 1.76918 2.67424 1.76918 2.86648C1.76918 3.0554 1.81392 3.2294 1.90341 3.38849C1.99621 3.54427 2.1205 3.66856 2.27628 3.76136C2.43537 3.85085 2.60938 3.8956 2.7983 3.8956ZM7.8544 3.8956H8.88352C9.07244 3.8956 9.24479 3.85085 9.40057 3.76136C9.55634 3.66856 9.67898 3.54427 9.76847 3.38849C9.86127 3.23272 9.90767 3.05871 9.90767 2.86648C9.90767 2.67424 9.86127 2.50189 9.76847 2.34943C9.67898 2.19366 9.55634 2.06937 9.40057 1.97656C9.24479 1.88376 9.07244 1.83736 8.88352 1.83736C8.69129 1.83736 8.51728 1.88376 8.36151 1.97656C8.20573 2.06937 8.08144 2.19366 7.98864 2.34943C7.89915 2.50189 7.8544 2.67424 7.8544 2.86648V3.8956ZM8.88352 9.98082C9.07244 9.98082 9.24479 9.93442 9.40057 9.84162C9.55634 9.74882 9.67898 9.62453 9.76847 9.46875C9.86127 9.31297 9.90767 9.14062 9.90767 8.9517C9.90767 8.75947 9.86127 8.58546 9.76847 8.42969C9.67898 8.27391 9.55634 8.14962 9.40057 8.05682C9.24479 7.9607 9.07244 7.91264 8.88352 7.91264H7.8544V8.9517C7.8544 9.14062 7.89915 9.31297 7.98864 9.46875C8.08144 9.62453 8.20573 9.74882 8.36151 9.84162C8.51728 9.93442 8.69129 9.98082 8.88352 9.98082ZM5.08026 6.66974H6.60653V5.13849H5.08026V6.66974ZM13.6761 11V0.818182H15.5206V5.49645H15.6449L19.6172 0.818182H21.8693L17.9318 5.38707L21.9041 11H19.6868L16.6491 6.63494L15.5206 7.96733V11H13.6761Z" fill="#ABADC6"/>
</svg>
