<svg width="20" height="20" viewBox="0 0 20 20" fill="none" xmlns="http://www.w3.org/2000/svg">
<path d="M11.5 1.67709L10.7503 2.33882C10.764 2.35438 10.7782 2.36952 10.7929 2.38419L11.5 1.67709ZM18.3229 11.5L17.6612 10.7503C17.6456 10.764 17.6305 10.7782 17.6158 10.7929L18.3229 11.5ZM18.5 8.67709L19.2497 8.01535C19.236 7.99979 19.2218 7.98466 19.2071 7.96998L18.5 8.67709ZM8.67709 18.5L7.96998 19.2071C7.98466 19.2218 7.99979 19.236 8.01535 19.2497L8.67709 18.5ZM11.3229 18.5L11.9846 19.2497C12.0002 19.236 12.0153 19.2218 12.03 19.2071L11.3229 18.5ZM1.67709 11.5L2.38419 10.7929L2.36217 10.7709L2.33882 10.7503L1.67709 11.5ZM5 4C4.44772 4 4 4.44772 4 5C4 5.55228 4.44772 6 5 6V4ZM5.01 6C5.56228 6 6.01 5.55228 6.01 5C6.01 4.44772 5.56228 4 5.01 4V6ZM2 5C2 3.34315 3.34315 2 5 2V0C2.23858 0 0 2.23858 0 5H2ZM2 10V5H0V10H2ZM5 2H10V0H5V2ZM10 2C10.2985 2 10.5656 2.12956 10.7503 2.33882L12.2497 1.01535C11.7015 0.394197 10.8962 0 10 0V2ZM18 10C18 10.2985 17.8704 10.5656 17.6612 10.7503L18.9846 12.2497C19.6058 11.7015 20 10.8962 20 10H18ZM17.7503 9.33882C17.9064 9.51571 18 9.7457 18 10H20C20 9.23985 19.716 8.5436 19.2497 8.01535L17.7503 9.33882ZM10 18C9.7457 18 9.51571 17.9064 9.33882 17.7503L8.01535 19.2497C8.5436 19.716 9.23985 20 10 20V18ZM10.6612 17.7503C10.4843 17.9064 10.2543 18 10 18V20C10.7602 20 11.4564 19.716 11.9846 19.2497L10.6612 17.7503ZM2.33882 10.7503C2.12956 10.5656 2 10.2985 2 10H0C0 10.8962 0.394197 11.7015 1.01535 12.2497L2.33882 10.7503ZM10.7929 2.38419L17.7929 9.38419L19.2071 7.96998L12.2071 0.969981L10.7929 2.38419ZM9.38419 17.7929L2.38419 10.7929L0.969981 12.2071L7.96998 19.2071L9.38419 17.7929ZM17.6158 10.7929L10.6158 17.7929L12.03 19.2071L19.03 12.2071L17.6158 10.7929ZM5 6H5.01V4H5V6Z" fill="#fff"/>
</svg>
